<svg width="610" height="170" viewBox="0 0 610 170" fill="none" xmlns="http://www.w3.org/2000/svg">
<g filter="url(#filter0_d_10893_29)">
<path d="M34.9277 120H19.7377C18.4964 120 17.5817 119.739 16.9937 119.216C16.471 118.628 16.2097 117.713 16.2097 116.472V52.968C16.2097 51.7267 16.471 50.8447 16.9937 50.322C17.5817 49.734 18.4964 49.44 19.7377 49.44H49.7257C58.611 49.44 64.687 51.204 67.9537 54.732C71.2204 58.26 72.8537 62.866 72.8537 68.55V81.094C72.8537 86.778 71.2204 91.384 67.9537 94.912C64.687 98.44 58.611 100.204 49.7257 100.204H38.4557V116.472C38.4557 117.713 38.1617 118.628 37.5737 119.216C37.051 119.739 36.169 120 34.9277 120ZM38.2597 67.766V82.564H47.0797C48.9744 82.564 50.2157 82.074 50.8037 81.094C51.3917 80.114 51.6857 79.0033 51.6857 77.762V72.568C51.6857 71.3267 51.3917 70.216 50.8037 69.236C50.2157 68.256 48.9744 67.766 47.0797 67.766H38.2597ZM150.63 101.478C150.63 104.483 150.173 107.227 149.258 109.71C148.409 112.127 146.841 114.218 144.554 115.982C142.333 117.681 139.23 119.02 135.244 120C131.324 120.98 126.326 121.47 120.25 121.47C114.174 121.47 109.144 120.98 105.158 120C101.173 119.02 98.0371 117.681 95.7505 115.982C93.5291 114.218 91.9611 112.127 91.0465 109.71C90.1971 107.227 89.7725 104.483 89.7725 101.478V68.06C89.7725 65.0547 90.1971 62.3433 91.0465 59.926C91.9611 57.4433 93.5291 55.32 95.7505 53.556C98.0371 51.792 101.173 50.42 105.158 49.44C109.144 48.46 114.174 47.97 120.25 47.97C126.326 47.97 131.324 48.46 135.244 49.44C139.23 50.42 142.333 51.792 144.554 53.556C146.841 55.32 148.409 57.4433 149.258 59.926C150.173 62.3433 150.63 65.0547 150.63 68.06V101.478ZM112.018 97.95C112.018 99.2567 112.508 100.367 113.488 101.282C114.468 102.131 116.722 102.556 120.25 102.556C123.778 102.556 126.032 102.131 127.012 101.282C127.992 100.367 128.482 99.2567 128.482 97.95V71.588C128.482 70.3467 127.992 69.3013 127.012 68.452C126.032 67.5373 123.778 67.08 120.25 67.08C116.722 67.08 114.468 67.5373 113.488 68.452C112.508 69.3013 112.018 70.3467 112.018 71.588V97.95ZM203.678 120H172.71C171.469 120 170.554 119.739 169.966 119.216C169.444 118.628 169.182 117.713 169.182 116.472V105.006C169.182 103.765 169.444 102.883 169.966 102.36C170.554 101.772 171.469 101.478 172.71 101.478H199.072C199.922 101.478 200.542 101.217 200.934 100.694C201.392 100.106 201.62 99.42 201.62 98.636C201.62 97.5253 201.392 96.7087 200.934 96.186C200.542 95.6633 199.922 95.3693 199.072 95.304L184.372 93.246C179.799 92.5927 176.108 91.09 173.298 88.738C170.554 86.386 169.182 82.466 169.182 76.978V66.688C169.182 61.1347 170.979 56.888 174.572 53.948C178.166 50.9427 183.131 49.44 189.468 49.44H216.908C218.15 49.44 219.032 49.734 219.554 50.322C220.142 50.8447 220.436 51.7267 220.436 52.968V64.63C220.436 65.8713 220.142 66.786 219.554 67.374C219.032 67.8967 218.15 68.158 216.908 68.158H194.074C193.225 68.158 192.572 68.452 192.114 69.04C191.657 69.5627 191.428 70.2487 191.428 71.098C191.428 71.9473 191.657 72.666 192.114 73.254C192.572 73.842 193.225 74.1687 194.074 74.234L208.676 76.194C213.25 76.8473 216.941 78.35 219.75 80.702C222.56 83.054 223.964 86.974 223.964 92.462V102.752C223.964 108.305 222.135 112.585 218.476 115.59C214.883 118.53 209.95 120 203.678 120ZM274.888 120H259.012C257.77 120 256.856 119.739 256.268 119.216C255.745 118.628 255.484 117.713 255.484 116.472V68.354H241.078C239.836 68.354 238.922 68.0927 238.334 67.57C237.811 66.982 237.55 66.0673 237.55 64.826V52.968C237.55 51.7267 237.811 50.8447 238.334 50.322C238.922 49.734 239.836 49.44 241.078 49.44H292.822C294.063 49.44 294.945 49.734 295.468 50.322C296.056 50.8447 296.35 51.7267 296.35 52.968V64.826C296.35 66.0673 296.056 66.982 295.468 67.57C294.945 68.0927 294.063 68.354 292.822 68.354H278.416V116.472C278.416 117.713 278.122 118.628 277.534 119.216C277.011 119.739 276.129 120 274.888 120ZM360.184 120H336.272C328.105 120 322.029 118.367 318.044 115.1C314.124 111.833 312.164 106.803 312.164 100.008V69.53C312.164 62.7353 314.124 57.7047 318.044 54.438C322.029 51.106 328.105 49.44 336.272 49.44H360.184C361.425 49.44 362.307 49.734 362.83 50.322C363.418 50.8447 363.712 51.7267 363.712 52.968V64.826C363.712 66.0673 363.418 66.982 362.83 67.57C362.307 68.0927 361.425 68.354 360.184 68.354H340.486C338.46 68.354 336.958 68.7787 335.978 69.628C334.998 70.412 334.508 71.6207 334.508 73.254V96.578C334.508 98.2113 334.998 99.42 335.978 100.204C336.958 100.923 338.46 101.282 340.486 101.282H360.184C361.425 101.282 362.307 101.576 362.83 102.164C363.418 102.687 363.712 103.569 363.712 104.81V116.472C363.712 117.713 363.418 118.628 362.83 119.216C362.307 119.739 361.425 120 360.184 120ZM441.92 101.478C441.92 104.483 441.463 107.227 440.548 109.71C439.699 112.127 438.131 114.218 435.844 115.982C433.623 117.681 430.52 119.02 426.534 120C422.614 120.98 417.616 121.47 411.54 121.47C405.464 121.47 400.434 120.98 396.448 120C392.463 119.02 389.327 117.681 387.04 115.982C384.819 114.218 383.251 112.127 382.336 109.71C381.487 107.227 381.062 104.483 381.062 101.478V68.06C381.062 65.0547 381.487 62.3433 382.336 59.926C383.251 57.4433 384.819 55.32 387.04 53.556C389.327 51.792 392.463 50.42 396.448 49.44C400.434 48.46 405.464 47.97 411.54 47.97C417.616 47.97 422.614 48.46 426.534 49.44C430.52 50.42 433.623 51.792 435.844 53.556C438.131 55.32 439.699 57.4433 440.548 59.926C441.463 62.3433 441.92 65.0547 441.92 68.06V101.478ZM403.308 97.95C403.308 99.2567 403.798 100.367 404.778 101.282C405.758 102.131 408.012 102.556 411.54 102.556C415.068 102.556 417.322 102.131 418.302 101.282C419.282 100.367 419.772 99.2567 419.772 97.95V71.588C419.772 70.3467 419.282 69.3013 418.302 68.452C417.322 67.5373 415.068 67.08 411.54 67.08C408.012 67.08 405.758 67.5373 404.778 68.452C403.798 69.3013 403.308 70.3467 403.308 71.588V97.95ZM498.79 120H465.764C464.523 120 463.608 119.739 463.02 119.216C462.497 118.628 462.236 117.713 462.236 116.472V52.968C462.236 51.7267 462.497 50.8447 463.02 50.322C463.608 49.734 464.523 49.44 465.764 49.44H498.79C506.957 49.44 513 51.0733 516.92 54.34C520.905 57.6067 522.898 62.6373 522.898 69.432V100.008C522.898 106.803 520.905 111.833 516.92 115.1C513 118.367 506.957 120 498.79 120ZM484.482 68.158V101.478H496.144C497.712 101.478 498.855 101.086 499.574 100.302C500.358 99.518 500.75 98.3093 500.75 96.676V72.862C500.75 71.2287 500.358 70.0527 499.574 69.334C498.855 68.55 497.712 68.158 496.144 68.158H484.482ZM592.193 120H546.721C545.48 120 544.565 119.739 543.977 119.216C543.455 118.628 543.193 117.713 543.193 116.472V52.968C543.193 51.7267 543.455 50.8447 543.977 50.322C544.565 49.734 545.48 49.44 546.721 49.44H592.193C593.435 49.44 594.317 49.734 594.839 50.322C595.427 50.8447 595.721 51.7267 595.721 52.968V64.434C595.721 65.6753 595.427 66.59 594.839 67.178C594.317 67.7007 593.435 67.962 592.193 67.962H565.145V75.508H584.255C585.497 75.508 586.379 75.802 586.901 76.39C587.489 76.9127 587.783 77.7947 587.783 79.036V89.522C587.783 90.7633 587.489 91.678 586.901 92.266C586.379 92.7887 585.497 93.05 584.255 93.05H565.145V101.478H592.193C593.435 101.478 594.317 101.772 594.839 102.36C595.427 102.883 595.721 103.765 595.721 105.006V116.472C595.721 117.713 595.427 118.628 594.839 119.216C594.317 119.739 593.435 120 592.193 120Z" fill="black"/>
<path d="M16.9937 119.216L16.2463 119.88L16.2854 119.924L16.3293 119.963L16.9937 119.216ZM16.9937 50.322L16.2866 49.6149L16.2866 49.6149L16.9937 50.322ZM67.9537 54.732L67.2199 55.4114L67.2199 55.4114L67.9537 54.732ZM67.9537 94.912L67.2199 94.2326L67.2199 94.2326L67.9537 94.912ZM38.4557 100.204V99.204H37.4557V100.204H38.4557ZM37.5737 119.216L36.8666 118.509L36.8666 118.509L37.5737 119.216ZM38.2597 67.766V66.766H37.2597V67.766H38.2597ZM38.2597 82.564H37.2597V83.564H38.2597V82.564ZM50.8037 81.094L51.6612 81.6085L51.6612 81.6085L50.8037 81.094ZM50.8037 69.236L49.9462 69.7505L49.9462 69.7505L50.8037 69.236ZM34.9277 119H19.7377V121H34.9277V119ZM19.7377 119C18.6066 119 17.9826 118.757 17.6581 118.469L16.3293 119.963C17.1808 120.72 18.3861 121 19.7377 121V119ZM17.7411 118.552C17.4526 118.227 17.2097 117.603 17.2097 116.472H15.2097C15.2097 117.824 15.4894 119.029 16.2463 119.88L17.7411 118.552ZM17.2097 116.472V52.968H15.2097V116.472H17.2097ZM17.2097 52.968C17.2097 51.8221 17.4588 51.2711 17.7008 51.0291L16.2866 49.6149C15.4833 50.4182 15.2097 51.6313 15.2097 52.968H17.2097ZM17.7008 51.0291C18.0262 50.7037 18.6322 50.44 19.7377 50.44V48.44C18.3605 48.44 17.1372 48.7643 16.2866 49.6149L17.7008 51.0291ZM19.7377 50.44H49.7257V48.44H19.7377V50.44ZM49.7257 50.44C58.548 50.44 64.2512 52.2051 67.2199 55.4114L68.6875 54.0526C65.1229 50.2029 58.6741 48.44 49.7257 48.44V50.44ZM67.2199 55.4114C70.285 58.7216 71.8537 63.0691 71.8537 68.55H73.8537C73.8537 62.6629 72.1558 57.7984 68.6875 54.0526L67.2199 55.4114ZM71.8537 68.55V81.094H73.8537V68.55H71.8537ZM71.8537 81.094C71.8537 86.5749 70.285 90.9224 67.2199 94.2326L68.6875 95.5914C72.1558 91.8456 73.8537 86.9811 73.8537 81.094H71.8537ZM67.2199 94.2326C64.2512 97.4389 58.548 99.204 49.7257 99.204V101.204C58.6741 101.204 65.1229 99.4411 68.6875 95.5914L67.2199 94.2326ZM49.7257 99.204H38.4557V101.204H49.7257V99.204ZM37.4557 100.204V116.472H39.4557V100.204H37.4557ZM37.4557 116.472C37.4557 117.578 37.192 118.183 36.8666 118.509L38.2808 119.923C39.1314 119.073 39.4557 117.849 39.4557 116.472H37.4557ZM36.8666 118.509C36.6246 118.751 36.0736 119 34.9277 119V121C36.2644 121 37.4775 120.726 38.2808 119.923L36.8666 118.509ZM37.2597 67.766V82.564H39.2597V67.766H37.2597ZM38.2597 83.564H47.0797V81.564H38.2597V83.564ZM47.0797 83.564C49.0868 83.564 50.7965 83.0496 51.6612 81.6085L49.9462 80.5795C49.6349 81.0984 48.8619 81.564 47.0797 81.564V83.564ZM51.6612 81.6085C52.3504 80.4598 52.6857 79.1684 52.6857 77.762H50.6857C50.6857 78.8382 50.433 79.7682 49.9462 80.5795L51.6612 81.6085ZM52.6857 77.762V72.568H50.6857V77.762H52.6857ZM52.6857 72.568C52.6857 71.1616 52.3504 69.8702 51.6612 68.7215L49.9462 69.7505C50.433 70.5618 50.6857 71.4918 50.6857 72.568H52.6857ZM51.6612 68.7215C50.7965 67.2804 49.0868 66.766 47.0797 66.766V68.766C48.8619 68.766 49.6349 69.2316 49.9462 69.7505L51.6612 68.7215ZM47.0797 66.766H38.2597V68.766H47.0797V66.766ZM149.258 109.71L148.32 109.364L148.318 109.371L148.315 109.379L149.258 109.71ZM144.554 115.982L145.162 116.776L145.165 116.774L144.554 115.982ZM135.244 120L135.006 119.029L135.002 119.03L135.244 120ZM105.158 120L104.92 120.971L104.92 120.971L105.158 120ZM95.7505 115.982L95.1286 116.765L95.1412 116.775L95.1541 116.785L95.7505 115.982ZM91.0465 109.71L90.1003 110.034L90.1055 110.049L90.1112 110.064L91.0465 109.71ZM91.0465 59.926L90.1081 59.5803L90.1055 59.5874L90.103 59.5945L91.0465 59.926ZM95.7505 53.556L95.1396 52.7641L95.1286 52.7729L95.7505 53.556ZM105.158 49.44L104.92 48.4689L104.92 48.4689L105.158 49.44ZM135.244 49.44L135.002 50.4101L135.006 50.4111L135.244 49.44ZM144.554 53.556L143.933 54.3392L143.944 54.3478L144.554 53.556ZM149.258 59.926L148.312 60.2497L148.318 60.2649L148.323 60.2799L149.258 59.926ZM113.488 101.282L112.806 102.013L112.82 102.026L112.834 102.038L113.488 101.282ZM127.012 101.282L127.667 102.038L127.681 102.026L127.695 102.013L127.012 101.282ZM127.012 68.452L126.33 69.1831L126.344 69.1956L126.358 69.2077L127.012 68.452ZM113.488 68.452L114.143 69.2077L114.157 69.1956L114.171 69.1831L113.488 68.452ZM149.63 101.478C149.63 104.381 149.189 107.006 148.32 109.364L150.197 110.056C151.157 107.448 151.63 104.585 151.63 101.478H149.63ZM148.315 109.379C147.538 111.591 146.097 113.529 143.944 115.19L145.165 116.774C147.585 114.907 149.281 112.664 150.202 110.041L148.315 109.379ZM143.947 115.188C141.874 116.773 138.915 118.068 135.006 119.029L135.483 120.971C139.545 119.972 142.792 118.588 145.162 116.776L143.947 115.188ZM135.002 119.03C131.19 119.983 126.281 120.47 120.25 120.47V122.47C126.372 122.47 131.459 121.977 135.487 120.97L135.002 119.03ZM120.25 120.47C114.22 120.47 109.277 119.983 105.397 119.029L104.92 120.971C109.011 121.977 114.129 122.47 120.25 122.47V120.47ZM105.397 119.029C101.489 118.068 98.4905 116.772 96.3468 115.179L95.1541 116.785C97.5837 118.59 100.858 119.972 104.92 120.971L105.397 119.029ZM96.3724 115.199C94.2781 113.536 92.8265 111.589 91.9818 109.356L90.1112 110.064C91.0958 112.666 92.7802 114.9 95.1286 116.765L96.3724 115.199ZM91.9926 109.386C91.1837 107.022 90.7725 104.389 90.7725 101.478H88.7725C88.7725 104.578 89.2106 107.433 90.1003 110.034L91.9926 109.386ZM90.7725 101.478V68.06H88.7725V101.478H90.7725ZM90.7725 68.06C90.7725 65.1485 91.1839 62.5517 91.9899 60.2575L90.103 59.5945C89.2104 62.135 88.7725 64.9609 88.7725 68.06H90.7725ZM91.9848 60.2717C92.8315 57.9735 94.2839 55.9976 96.3724 54.3391L95.1286 52.7729C92.7744 54.6424 91.0908 56.9131 90.1081 59.5803L91.9848 60.2717ZM96.3613 54.3478C98.5016 52.6966 101.494 51.3708 105.397 50.4111L104.92 48.4689C100.852 49.4692 97.5726 50.8873 95.1397 52.7642L96.3613 54.3478ZM105.397 50.4111C109.277 49.4571 114.22 48.97 120.25 48.97V46.97C114.129 46.97 109.011 47.4629 104.92 48.4689L105.397 50.4111ZM120.25 48.97C126.281 48.97 131.19 49.4572 135.002 50.4101L135.487 48.4699C131.459 47.4628 126.372 46.97 120.25 46.97V48.97ZM135.006 50.4111C138.909 51.3709 141.863 52.6953 143.933 54.3391L145.176 52.7729C142.804 50.8887 139.551 49.4691 135.483 48.4689L135.006 50.4111ZM143.944 54.3478C146.091 56.0045 147.533 57.9711 148.312 60.2497L150.205 59.6023C149.285 56.9156 147.591 54.6354 145.165 52.7642L143.944 54.3478ZM148.323 60.2799C149.189 62.5673 149.63 65.1562 149.63 68.06H151.63C151.63 64.9531 151.158 62.1193 150.194 59.5721L148.323 60.2799ZM149.63 68.06V101.478H151.63V68.06H149.63ZM111.018 97.95C111.018 99.5419 111.629 100.915 112.806 102.013L114.171 100.551C113.387 99.8199 113.018 98.9715 113.018 97.95H111.018ZM112.834 102.038C113.525 102.637 114.544 102.997 115.729 103.22C116.94 103.448 118.454 103.556 120.25 103.556V101.556C118.519 101.556 117.142 101.451 116.099 101.255C115.03 101.053 114.432 100.777 114.143 100.526L112.834 102.038ZM120.25 103.556C122.047 103.556 123.561 103.448 124.772 103.22C125.957 102.997 126.976 102.637 127.667 102.038L126.358 100.526C126.069 100.777 125.471 101.053 124.402 101.255C123.359 101.451 121.982 101.556 120.25 101.556V103.556ZM127.695 102.013C128.871 100.915 129.482 99.5419 129.482 97.95H127.482C127.482 98.9715 127.113 99.8199 126.33 100.551L127.695 102.013ZM129.482 97.95V71.588H127.482V97.95H129.482ZM129.482 71.588C129.482 70.0422 128.855 68.7259 127.667 67.6963L126.358 69.2077C127.13 69.8768 127.482 70.6512 127.482 71.588H129.482ZM127.695 67.7209C127.004 67.0766 125.98 66.6852 124.786 66.443C123.569 66.196 122.05 66.08 120.25 66.08V68.08C121.979 68.08 123.351 68.1927 124.388 68.403C125.448 68.6181 126.041 68.9127 126.33 69.1831L127.695 67.7209ZM120.25 66.08C118.451 66.08 116.932 66.196 115.715 66.443C114.521 66.6852 113.497 67.0766 112.806 67.7209L114.171 69.1831C114.46 68.9127 115.053 68.6181 116.113 68.403C117.15 68.1927 118.522 68.08 120.25 68.08V66.08ZM112.834 67.6963C111.646 68.7259 111.018 70.0422 111.018 71.588H113.018C113.018 70.6512 113.371 69.8768 114.143 69.2077L112.834 67.6963ZM111.018 71.588V97.95H113.018V71.588H111.018ZM169.966 119.216L169.219 119.88L169.258 119.924L169.302 119.963L169.966 119.216ZM169.966 102.36L170.673 103.067L170.673 103.067L169.966 102.36ZM200.934 100.694L200.145 100.08L200.14 100.087L200.134 100.094L200.934 100.694ZM200.934 96.186L200.134 96.786L200.157 96.8161L200.182 96.8445L200.934 96.186ZM199.072 95.304L198.934 96.2943L198.965 96.2987L198.996 96.3011L199.072 95.304ZM184.372 93.246L184.231 94.236L184.234 94.2363L184.372 93.246ZM173.298 88.738L172.647 89.4973L172.656 89.5048L173.298 88.738ZM174.572 53.948L175.206 54.722L175.214 54.7151L174.572 53.948ZM219.554 50.322L218.807 50.9864L218.846 51.0303L218.89 51.0694L219.554 50.322ZM192.114 69.04L192.867 69.6985L192.886 69.6767L192.904 69.6539L192.114 69.04ZM194.074 74.234L194.207 73.2429L194.179 73.2391L194.151 73.2369L194.074 74.234ZM208.676 76.194L208.818 75.204L208.809 75.2029L208.676 76.194ZM219.75 80.702L220.392 79.9352L220.392 79.9352L219.75 80.702ZM218.476 115.59L219.11 116.364L219.111 116.363L218.476 115.59ZM203.678 119H172.71V121H203.678V119ZM172.71 119C171.579 119 170.955 118.757 170.631 118.469L169.302 119.963C170.153 120.72 171.359 121 172.71 121V119ZM170.714 118.552C170.425 118.227 170.182 117.603 170.182 116.472H168.182C168.182 117.824 168.462 119.029 169.219 119.88L170.714 118.552ZM170.182 116.472V105.006H168.182V116.472H170.182ZM170.182 105.006C170.182 103.86 170.431 103.309 170.673 103.067L169.259 101.653C168.456 102.456 168.182 103.669 168.182 105.006H170.182ZM170.673 103.067C170.999 102.742 171.605 102.478 172.71 102.478V100.478C171.333 100.478 170.11 100.802 169.259 101.653L170.673 103.067ZM172.71 102.478H199.072V100.478H172.71V102.478ZM199.072 102.478C200.133 102.478 201.099 102.141 201.734 101.294L200.134 100.094C199.986 100.292 199.71 100.478 199.072 100.478V102.478ZM201.724 101.308C202.325 100.535 202.62 99.6299 202.62 98.636H200.62C200.62 99.2101 200.458 99.6772 200.145 100.08L201.724 101.308ZM202.62 98.636C202.62 97.4202 202.375 96.3143 201.687 95.5275L200.182 96.8445C200.408 97.103 200.62 97.6305 200.62 98.636H202.62ZM201.734 95.586C201.121 94.7678 200.193 94.3872 199.149 94.3069L198.996 96.3011C199.651 96.3514 199.964 96.5588 200.134 96.786L201.734 95.586ZM199.211 94.3137L184.511 92.2557L184.234 94.2363L198.934 96.2943L199.211 94.3137ZM184.514 92.2561C180.077 91.6222 176.574 90.1761 173.94 87.9712L172.656 89.5048C175.641 92.0039 179.521 93.5631 184.231 94.2359L184.514 92.2561ZM173.949 87.9787C171.521 85.8975 170.182 82.3266 170.182 76.978H168.182C168.182 82.6054 169.588 86.8745 172.648 89.4973L173.949 87.9787ZM170.182 76.978V66.688H168.182V76.978H170.182ZM170.182 66.688C170.182 61.3694 171.89 57.4343 175.206 54.722L173.939 53.174C170.067 56.3417 168.182 60.8999 168.182 66.688H170.182ZM175.214 54.7151C178.573 51.906 183.283 50.44 189.468 50.44V48.44C182.979 48.44 177.759 49.9793 173.931 53.1809L175.214 54.7151ZM189.468 50.44H216.908V48.44H189.468V50.44ZM216.908 50.44C218.027 50.44 218.56 50.709 218.807 50.9864L220.302 49.6576C219.503 48.759 218.273 48.44 216.908 48.44V50.44ZM218.89 51.0694C219.167 51.3159 219.436 51.8495 219.436 52.968H221.436C221.436 51.6038 221.117 50.3734 220.219 49.5746L218.89 51.0694ZM219.436 52.968V64.63H221.436V52.968H219.436ZM219.436 64.63C219.436 65.7355 219.173 66.3415 218.847 66.6669L220.261 68.0811C221.112 67.2305 221.436 66.0071 221.436 64.63H219.436ZM218.847 66.6669C218.605 66.9089 218.054 67.158 216.908 67.158V69.158C218.245 69.158 219.458 68.8844 220.261 68.0811L218.847 66.6669ZM216.908 67.158H194.074V69.158H216.908V67.158ZM194.074 67.158C192.965 67.158 192 67.5582 191.325 68.4261L192.904 69.6539C193.143 69.3458 193.485 69.158 194.074 69.158V67.158ZM191.362 68.3815C190.711 69.1248 190.428 70.0628 190.428 71.098H192.428C192.428 70.4346 192.603 70.0005 192.867 69.6985L191.362 68.3815ZM190.428 71.098C190.428 72.137 190.712 73.0802 191.325 73.8679L192.904 72.6401C192.602 72.2518 192.428 71.7577 192.428 71.098H190.428ZM191.325 73.8679C191.981 74.7113 192.912 75.1475 193.998 75.2311L194.151 73.2369C193.538 73.1898 193.162 72.9727 192.904 72.6401L191.325 73.8679ZM193.941 75.2251L208.543 77.1851L208.809 75.2029L194.207 73.2429L193.941 75.2251ZM208.535 77.1839C212.972 77.8178 216.475 79.2639 219.108 81.4688L220.392 79.9352C217.407 77.4361 213.528 75.8769 208.818 75.204L208.535 77.1839ZM219.108 81.4688C221.597 83.5519 222.964 87.12 222.964 92.462H224.964C224.964 86.828 223.523 82.5561 220.392 79.9352L219.108 81.4688ZM222.964 92.462V102.752H224.964V92.462H222.964ZM222.964 102.752C222.964 108.064 221.228 112.036 217.842 114.817L219.111 116.363C223.042 113.134 224.964 108.547 224.964 102.752H222.964ZM217.843 114.816C214.482 117.566 209.8 119 203.678 119V121C210.1 121 215.284 119.494 219.11 116.364L217.843 114.816ZM256.268 119.216L255.52 119.88L255.559 119.924L255.603 119.963L256.268 119.216ZM255.484 68.354H256.484V67.354H255.484V68.354ZM238.334 67.57L237.586 68.2344L237.625 68.2783L237.669 68.3174L238.334 67.57ZM238.334 50.322L237.626 49.6149L237.626 49.6149L238.334 50.322ZM295.468 50.322L294.72 50.9864L294.759 51.0303L294.803 51.0694L295.468 50.322ZM278.416 68.354V67.354H277.416V68.354H278.416ZM277.534 119.216L276.826 118.509L276.826 118.509L277.534 119.216ZM274.888 119H259.012V121H274.888V119ZM259.012 119C257.88 119 257.256 118.757 256.932 118.469L255.603 119.963C256.455 120.72 257.66 121 259.012 121V119ZM257.015 118.552C256.727 118.227 256.484 117.603 256.484 116.472H254.484C254.484 117.824 254.763 119.029 255.52 119.88L257.015 118.552ZM256.484 116.472V68.354H254.484V116.472H256.484ZM255.484 67.354H241.078V69.354H255.484V67.354ZM241.078 67.354C239.946 67.354 239.322 67.1111 238.998 66.8226L237.669 68.3174C238.521 69.0743 239.726 69.354 241.078 69.354V67.354ZM239.081 66.9056C238.793 66.5811 238.55 65.9571 238.55 64.826H236.55C236.55 66.1776 236.829 67.3829 237.586 68.2344L239.081 66.9056ZM238.55 64.826V52.968H236.55V64.826H238.55ZM238.55 52.968C238.55 51.8221 238.799 51.2711 239.041 51.0291L237.626 49.6149C236.823 50.4182 236.55 51.6313 236.55 52.968H238.55ZM239.041 51.0291C239.366 50.7037 239.972 50.44 241.078 50.44V48.44C239.7 48.44 238.477 48.7643 237.626 49.6149L239.041 51.0291ZM241.078 50.44H292.822V48.44H241.078V50.44ZM292.822 50.44C293.94 50.44 294.474 50.709 294.72 50.9864L296.215 49.6576C295.416 48.759 294.186 48.44 292.822 48.44V50.44ZM294.803 51.0694C295.081 51.3159 295.35 51.8495 295.35 52.968H297.35C297.35 51.6038 297.031 50.3734 296.132 49.5746L294.803 51.0694ZM295.35 52.968V64.826H297.35V52.968H295.35ZM295.35 64.826C295.35 65.9315 295.086 66.5375 294.76 66.8629L296.175 68.2771C297.025 67.4265 297.35 66.2031 297.35 64.826H295.35ZM294.76 66.8629C294.518 67.1049 293.968 67.354 292.822 67.354V69.354C294.158 69.354 295.371 69.0804 296.175 68.2771L294.76 66.8629ZM292.822 67.354H278.416V69.354H292.822V67.354ZM277.416 68.354V116.472H279.416V68.354H277.416ZM277.416 116.472C277.416 117.578 277.152 118.183 276.826 118.509L278.241 119.923C279.091 119.073 279.416 117.849 279.416 116.472H277.416ZM276.826 118.509C276.584 118.751 276.034 119 274.888 119V121C276.224 121 277.437 120.726 278.241 119.923L276.826 118.509ZM318.044 115.1L317.403 115.868L317.41 115.873L318.044 115.1ZM318.044 54.438L318.684 55.2062L318.685 55.2052L318.044 54.438ZM362.83 50.322L362.082 50.9864L362.121 51.0303L362.165 51.0694L362.83 50.322ZM335.978 69.628L336.602 70.4089L336.618 70.3966L336.632 70.3837L335.978 69.628ZM335.978 100.204L335.353 100.985L335.369 100.998L335.386 101.01L335.978 100.204ZM362.83 102.164L362.082 102.828L362.121 102.872L362.165 102.911L362.83 102.164ZM362.83 119.216L363.537 119.923L363.537 119.923L362.83 119.216ZM360.184 119H336.272V121H360.184V119ZM336.272 119C328.209 119 322.406 117.383 318.677 114.327L317.41 115.873C321.652 119.351 328.001 121 336.272 121V119ZM318.684 114.332C315.062 111.313 313.164 106.611 313.164 100.008H311.164C311.164 106.995 313.186 112.353 317.403 115.868L318.684 114.332ZM313.164 100.008V69.53H311.164V100.008H313.164ZM313.164 69.53C313.164 62.9273 315.062 58.2247 318.684 55.2062L317.403 53.6698C313.186 57.1846 311.164 62.5434 311.164 69.53H313.164ZM318.685 55.2052C322.413 52.0887 328.213 50.44 336.272 50.44V48.44C327.997 48.44 321.645 50.1233 317.402 53.6708L318.685 55.2052ZM336.272 50.44H360.184V48.44H336.272V50.44ZM360.184 50.44C361.302 50.44 361.836 50.709 362.082 50.9864L363.577 49.6576C362.778 48.759 361.548 48.44 360.184 48.44V50.44ZM362.165 51.0694C362.443 51.3159 362.712 51.8495 362.712 52.968H364.712C364.712 51.6038 364.393 50.3734 363.494 49.5746L362.165 51.0694ZM362.712 52.968V64.826H364.712V52.968H362.712ZM362.712 64.826C362.712 65.9315 362.448 66.5375 362.122 66.8629L363.537 68.2771C364.387 67.4265 364.712 66.2031 364.712 64.826H362.712ZM362.122 66.8629C361.88 67.1049 361.329 67.354 360.184 67.354V69.354C361.52 69.354 362.733 69.0804 363.537 68.2771L362.122 66.8629ZM360.184 67.354H340.486V69.354H360.184V67.354ZM340.486 67.354C338.348 67.354 336.563 67.7977 335.323 68.8723L336.632 70.3837C337.353 69.7596 338.572 69.354 340.486 69.354V67.354ZM335.353 68.8471C334.068 69.8752 333.508 71.4159 333.508 73.254H335.508C335.508 71.8254 335.927 70.9488 336.602 70.4089L335.353 68.8471ZM333.508 73.254V96.578H335.508V73.254H333.508ZM333.508 96.578C333.508 98.4161 334.068 99.9568 335.353 100.985L336.602 99.4231C335.927 98.8832 335.508 98.0066 335.508 96.578H333.508ZM335.386 101.01C336.618 101.914 338.376 102.282 340.486 102.282V100.282C338.544 100.282 337.297 99.9313 336.569 99.3976L335.386 101.01ZM340.486 102.282H360.184V100.282H340.486V102.282ZM360.184 102.282C361.302 102.282 361.836 102.551 362.082 102.828L363.577 101.5C362.778 100.601 361.548 100.282 360.184 100.282V102.282ZM362.165 102.911C362.443 103.158 362.712 103.692 362.712 104.81H364.712C364.712 103.446 364.393 102.215 363.494 101.417L362.165 102.911ZM362.712 104.81V116.472H364.712V104.81H362.712ZM362.712 116.472C362.712 117.578 362.448 118.183 362.122 118.509L363.537 119.923C364.387 119.073 364.712 117.849 364.712 116.472H362.712ZM362.122 118.509C361.88 118.751 361.329 119 360.184 119V121C361.52 121 362.733 120.726 363.537 119.923L362.122 118.509ZM440.548 109.71L439.61 109.364L439.607 109.371L439.605 109.379L440.548 109.71ZM435.844 115.982L436.452 116.776L436.455 116.774L435.844 115.982ZM426.534 120L426.295 119.029L426.292 119.03L426.534 120ZM396.448 120L396.209 120.971L396.209 120.971L396.448 120ZM387.04 115.982L386.418 116.765L386.431 116.775L386.444 116.785L387.04 115.982ZM382.336 109.71L381.39 110.034L381.395 110.049L381.401 110.064L382.336 109.71ZM382.336 59.926L381.398 59.5803L381.395 59.5874L381.393 59.5945L382.336 59.926ZM387.04 53.556L386.429 52.7641L386.418 52.7729L387.04 53.556ZM396.448 49.44L396.209 48.4689L396.209 48.4689L396.448 49.44ZM426.534 49.44L426.292 50.4101L426.295 50.4111L426.534 49.44ZM435.844 53.556L435.222 54.3392L435.233 54.3478L435.844 53.556ZM440.548 59.926L439.602 60.2497L439.607 60.2649L439.613 60.2799L440.548 59.926ZM404.778 101.282L404.096 102.013L404.109 102.026L404.123 102.038L404.778 101.282ZM418.302 101.282L418.957 102.038L418.971 102.026L418.984 102.013L418.302 101.282ZM418.302 68.452L417.62 69.1831L417.633 69.1956L417.647 69.2077L418.302 68.452ZM404.778 68.452L405.433 69.2077L405.447 69.1956L405.46 69.1831L404.778 68.452ZM440.92 101.478C440.92 104.381 440.479 107.006 439.61 109.364L441.487 110.056C442.447 107.448 442.92 104.585 442.92 101.478H440.92ZM439.605 109.379C438.827 111.591 437.387 113.529 435.233 115.19L436.455 116.774C438.875 114.907 440.57 112.664 441.492 110.041L439.605 109.379ZM435.237 115.188C433.164 116.773 430.204 118.068 426.295 119.029L426.773 120.971C430.835 119.972 434.082 118.588 436.452 116.776L435.237 115.188ZM426.292 119.03C422.48 119.983 417.571 120.47 411.54 120.47V122.47C417.661 122.47 422.748 121.977 426.777 120.97L426.292 119.03ZM411.54 120.47C405.51 120.47 400.567 119.983 396.687 119.029L396.209 120.971C400.3 121.977 405.418 122.47 411.54 122.47V120.47ZM396.687 119.029C392.778 118.068 389.78 116.772 387.636 115.179L386.444 116.785C388.873 118.59 392.147 119.972 396.209 120.971L396.687 119.029ZM387.662 115.199C385.568 113.536 384.116 111.589 383.271 109.356L381.401 110.064C382.386 112.666 384.07 114.9 386.418 116.765L387.662 115.199ZM383.282 109.386C382.473 107.022 382.062 104.389 382.062 101.478H380.062C380.062 104.578 380.5 107.433 381.39 110.034L383.282 109.386ZM382.062 101.478V68.06H380.062V101.478H382.062ZM382.062 68.06C382.062 65.1485 382.474 62.5517 383.28 60.2575L381.393 59.5945C380.5 62.135 380.062 64.9609 380.062 68.06H382.062ZM383.275 60.2717C384.121 57.9735 385.574 55.9976 387.662 54.3391L386.418 52.7729C384.064 54.6424 382.38 56.9131 381.398 59.5803L383.275 60.2717ZM387.651 54.3478C389.791 52.6966 392.784 51.3708 396.687 50.4111L396.209 48.4689C392.142 49.4692 388.862 50.8873 386.429 52.7642L387.651 54.3478ZM396.687 50.4111C400.567 49.4571 405.51 48.97 411.54 48.97V46.97C405.418 46.97 400.3 47.4629 396.209 48.4689L396.687 50.4111ZM411.54 48.97C417.571 48.97 422.48 49.4572 426.292 50.4101L426.777 48.4699C422.748 47.4628 417.661 46.97 411.54 46.97V48.97ZM426.295 50.4111C430.199 51.3709 433.152 52.6953 435.222 54.3391L436.466 52.7729C434.093 50.8887 430.84 49.4691 426.773 48.4689L426.295 50.4111ZM435.233 54.3478C437.381 56.0045 438.822 57.9711 439.602 60.2497L441.494 59.6023C440.575 56.9156 438.881 54.6354 436.455 52.7642L435.233 54.3478ZM439.613 60.2799C440.478 62.5673 440.92 65.1562 440.92 68.06H442.92C442.92 64.9531 442.447 62.1193 441.483 59.5721L439.613 60.2799ZM440.92 68.06V101.478H442.92V68.06H440.92ZM402.308 97.95C402.308 99.5419 402.919 100.915 404.096 102.013L405.46 100.551C404.677 99.8199 404.308 98.9715 404.308 97.95H402.308ZM404.123 102.038C404.814 102.637 405.833 102.997 407.019 103.22C408.23 103.448 409.743 103.556 411.54 103.556V101.556C409.809 101.556 408.431 101.451 407.389 101.255C406.32 101.053 405.722 100.777 405.433 100.526L404.123 102.038ZM411.54 103.556C413.337 103.556 414.85 103.448 416.062 103.22C417.247 102.997 418.266 102.637 418.957 102.038L417.647 100.526C417.358 100.777 416.76 101.053 415.692 101.255C414.649 101.451 413.271 101.556 411.54 101.556V103.556ZM418.984 102.013C420.161 100.915 420.772 99.5419 420.772 97.95H418.772C418.772 98.9715 418.403 99.8199 417.62 100.551L418.984 102.013ZM420.772 97.95V71.588H418.772V97.95H420.772ZM420.772 71.588C420.772 70.0422 420.145 68.7259 418.957 67.6963L417.647 69.2077C418.419 69.8768 418.772 70.6512 418.772 71.588H420.772ZM418.984 67.7209C418.294 67.0766 417.269 66.6852 416.076 66.443C414.858 66.196 413.34 66.08 411.54 66.08V68.08C413.269 68.08 414.641 68.1927 415.678 68.403C416.738 68.6181 417.33 68.9127 417.62 69.1831L418.984 67.7209ZM411.54 66.08C409.741 66.08 408.222 66.196 407.005 66.443C405.811 66.6852 404.786 67.0766 404.096 67.7209L405.46 69.1831C405.75 68.9127 406.342 68.6181 407.403 68.403C408.439 68.1927 409.812 68.08 411.54 68.08V66.08ZM404.123 67.6963C402.935 68.7259 402.308 70.0422 402.308 71.588H404.308C404.308 70.6512 404.661 69.8768 405.433 69.2077L404.123 67.6963ZM402.308 71.588V97.95H404.308V71.588H402.308ZM463.02 119.216L462.273 119.88L462.312 119.924L462.356 119.963L463.02 119.216ZM463.02 50.322L462.313 49.6149L462.313 49.6149L463.02 50.322ZM516.92 54.34L516.28 55.1082L516.286 55.1134L516.92 54.34ZM516.92 115.1L516.286 114.327L516.28 114.332L516.92 115.1ZM484.482 68.158V67.158H483.482V68.158H484.482ZM484.482 101.478H483.482V102.478H484.482V101.478ZM499.574 100.302L498.867 99.5949L498.852 99.6103L498.837 99.6263L499.574 100.302ZM499.574 69.334L498.837 70.0097L498.866 70.0418L498.898 70.0712L499.574 69.334ZM498.79 119H465.764V121H498.79V119ZM465.764 119C464.633 119 464.009 118.757 463.684 118.469L462.356 119.963C463.207 120.72 464.412 121 465.764 121V119ZM463.767 118.552C463.479 118.227 463.236 117.603 463.236 116.472H461.236C461.236 117.824 461.516 119.029 462.273 119.88L463.767 118.552ZM463.236 116.472V52.968H461.236V116.472H463.236ZM463.236 52.968C463.236 51.8221 463.485 51.2711 463.727 51.0291L462.313 49.6149C461.51 50.4182 461.236 51.6313 461.236 52.968H463.236ZM463.727 51.0291C464.053 50.7037 464.659 50.44 465.764 50.44V48.44C464.387 48.44 463.164 48.7643 462.313 49.6149L463.727 51.0291ZM465.764 50.44H498.79V48.44H465.764V50.44ZM498.79 50.44C506.855 50.44 512.62 52.0582 516.28 55.1082L517.56 53.5718C513.38 50.0884 507.059 48.44 498.79 48.44V50.44ZM516.286 55.1134C519.971 58.1336 521.898 62.8346 521.898 69.432H523.898C523.898 62.44 521.84 57.0797 517.554 53.5666L516.286 55.1134ZM521.898 69.432V100.008H523.898V69.432H521.898ZM521.898 100.008C521.898 106.605 519.971 111.306 516.286 114.327L517.554 115.873C521.84 112.36 523.898 107 523.898 100.008H521.898ZM516.28 114.332C512.62 117.382 506.855 119 498.79 119V121C507.059 121 513.38 119.352 517.56 115.868L516.28 114.332ZM483.482 68.158V101.478H485.482V68.158H483.482ZM484.482 102.478H496.144V100.478H484.482V102.478ZM496.144 102.478C497.858 102.478 499.328 102.05 500.311 100.978L498.837 99.6263C498.382 100.122 497.566 100.478 496.144 100.478V102.478ZM500.281 101.009C501.326 99.9647 501.75 98.4497 501.75 96.676H499.75C499.75 98.169 499.39 99.0713 498.867 99.5949L500.281 101.009ZM501.75 96.676V72.862H499.75V96.676H501.75ZM501.75 72.862C501.75 71.0974 501.329 69.5864 500.25 68.5968L498.898 70.0712C499.387 70.5189 499.75 71.36 499.75 72.862H501.75ZM500.311 68.6583C499.328 67.586 497.858 67.158 496.144 67.158V69.158C497.566 69.158 498.382 69.5139 498.837 70.0097L500.311 68.6583ZM496.144 67.158H484.482V69.158H496.144V67.158ZM543.977 119.216L543.23 119.88L543.269 119.924L543.313 119.963L543.977 119.216ZM543.977 50.322L543.27 49.6149L543.27 49.6149L543.977 50.322ZM594.839 50.322L594.092 50.9864L594.131 51.0303L594.175 51.0694L594.839 50.322ZM565.145 67.962V66.962H564.145V67.962H565.145ZM565.145 75.508H564.145V76.508H565.145V75.508ZM586.901 76.39L586.154 77.0544L586.193 77.0983L586.237 77.1374L586.901 76.39ZM586.901 92.266L586.194 91.5589L586.901 92.266ZM565.145 93.05V92.05H564.145V93.05H565.145ZM565.145 101.478H564.145V102.478H565.145V101.478ZM594.839 102.36L594.092 103.024L594.131 103.068L594.175 103.107L594.839 102.36ZM594.839 119.216L595.546 119.923L595.546 119.923L594.839 119.216ZM592.193 119H546.721V121H592.193V119ZM546.721 119C545.59 119 544.966 118.757 544.642 118.469L543.313 119.963C544.164 120.72 545.37 121 546.721 121V119ZM544.725 118.552C544.436 118.227 544.193 117.603 544.193 116.472H542.193C542.193 117.824 542.473 119.029 543.23 119.88L544.725 118.552ZM544.193 116.472V52.968H542.193V116.472H544.193ZM544.193 52.968C544.193 51.8221 544.442 51.2711 544.684 51.0291L543.27 49.6149C542.467 50.4182 542.193 51.6313 542.193 52.968H544.193ZM544.684 51.0291C545.01 50.7037 545.616 50.44 546.721 50.44V48.44C545.344 48.44 544.121 48.7643 543.27 49.6149L544.684 51.0291ZM546.721 50.44H592.193V48.44H546.721V50.44ZM592.193 50.44C593.312 50.44 593.845 50.709 594.092 50.9864L595.587 49.6576C594.788 48.759 593.557 48.44 592.193 48.44V50.44ZM594.175 51.0694C594.452 51.3159 594.721 51.8495 594.721 52.968H596.721C596.721 51.6038 596.402 50.3734 595.504 49.5746L594.175 51.0694ZM594.721 52.968V64.434H596.721V52.968H594.721ZM594.721 64.434C594.721 65.5395 594.458 66.1455 594.132 66.4709L595.546 67.8851C596.397 67.0345 596.721 65.8111 596.721 64.434H594.721ZM594.132 66.4709C593.89 66.7129 593.339 66.962 592.193 66.962V68.962C593.53 68.962 594.743 68.6884 595.546 67.8851L594.132 66.4709ZM592.193 66.962H565.145V68.962H592.193V66.962ZM564.145 67.962V75.508H566.145V67.962H564.145ZM565.145 76.508H584.255V74.508H565.145V76.508ZM584.255 76.508C585.374 76.508 585.907 76.777 586.154 77.0544L587.649 75.7256C586.85 74.827 585.619 74.508 584.255 74.508V76.508ZM586.237 77.1374C586.514 77.3839 586.783 77.9175 586.783 79.036H588.783C588.783 77.6718 588.464 76.4414 587.566 75.6426L586.237 77.1374ZM586.783 79.036V89.522H588.783V79.036H586.783ZM586.783 89.522C586.783 90.6275 586.52 91.2335 586.194 91.5589L587.608 92.9731C588.459 92.1225 588.783 90.8991 588.783 89.522H586.783ZM586.194 91.5589C585.952 91.8009 585.401 92.05 584.255 92.05V94.05C585.592 94.05 586.805 93.7764 587.608 92.9731L586.194 91.5589ZM584.255 92.05H565.145V94.05H584.255V92.05ZM564.145 93.05V101.478H566.145V93.05H564.145ZM565.145 102.478H592.193V100.478H565.145V102.478ZM592.193 102.478C593.312 102.478 593.845 102.747 594.092 103.024L595.587 101.696C594.788 100.797 593.557 100.478 592.193 100.478V102.478ZM594.175 103.107C594.452 103.354 594.721 103.888 594.721 105.006H596.721C596.721 103.642 596.402 102.411 595.504 101.613L594.175 103.107ZM594.721 105.006V116.472H596.721V105.006H594.721ZM594.721 116.472C594.721 117.578 594.458 118.183 594.132 118.509L595.546 119.923C596.397 119.073 596.721 117.849 596.721 116.472H594.721ZM594.132 118.509C593.89 118.751 593.339 119 592.193 119V121C593.53 121 594.743 120.726 595.546 119.923L594.132 118.509Z" fill="black"/>
</g>
<defs>
<filter id="filter0_d_10893_29" x="12.2097" y="47.97" width="587.511" height="81.5" filterUnits="userSpaceOnUse" color-interpolation-filters="sRGB">
<feFlood flood-opacity="0" result="BackgroundImageFix"/>
<feColorMatrix in="SourceAlpha" type="matrix" values="0 0 0 0 0 0 0 0 0 0 0 0 0 0 0 0 0 0 127 0" result="hardAlpha"/>
<feOffset dy="4"/>
<feGaussianBlur stdDeviation="2"/>
<feComposite in2="hardAlpha" operator="out"/>
<feColorMatrix type="matrix" values="0 0 0 0 0 0 0 0 0 0 0 0 0 0 0 0 0 0 0.25 0"/>
<feBlend mode="normal" in2="BackgroundImageFix" result="effect1_dropShadow_10893_29"/>
<feBlend mode="normal" in="SourceGraphic" in2="effect1_dropShadow_10893_29" result="shape"/>
</filter>
</defs>
</svg>
